<svg width="40" height="40" viewBox="0 0 40 40" fill="none" xmlns="http://www.w3.org/2000/svg">
<rect width="40" height="40" rx="10" fill="#F1F3F7"/>
<path d="M26.6663 27.4999C26.6663 26.3369 26.6663 25.7554 26.5228 25.2823C26.1996 24.2169 25.366 23.3832 24.3006 23.0601C23.8275 22.9165 23.246 22.9165 22.083 22.9165H17.9163C16.7534 22.9165 16.1719 22.9165 15.6987 23.0601C14.6334 23.3832 13.7997 24.2169 13.4765 25.2823C13.333 25.7554 13.333 26.3369 13.333 27.4999M23.7497 16.2499C23.7497 18.3209 22.0707 19.9999 19.9997 19.9999C17.9286 19.9999 16.2497 18.3209 16.2497 16.2499C16.2497 14.1788 17.9286 12.4999 19.9997 12.4999C22.0707 12.4999 23.7497 14.1788 23.7497 16.2499Z" stroke="#06082C" stroke-width="1.5" stroke-linecap="round" stroke-linejoin="round"/>
</svg>
