<svg width="32" height="33" viewBox="0 0 32 33" fill="none" xmlns="http://www.w3.org/2000/svg">
<rect x="-0.00439453" width="32" height="32.0219" fill="#06082C"/>
<path d="M9.97415 21.7777H9.60456L9.53213 22.1401L8.75037 26.0516L8.64262 26.5907H9.19238H17.01C20.4648 26.5907 23.7999 23.8011 24.4879 20.3611C24.8351 18.6252 24.448 17.0201 23.5079 15.8443C22.5671 14.6675 21.0992 13.9547 19.3553 13.9547H17.4009C16.9898 13.9547 16.6785 13.7903 16.4867 13.5504C16.2941 13.3095 16.1955 12.9587 16.2794 12.5379C16.4536 11.6647 17.3268 10.9448 18.1827 10.9448H26.0003H26.3699L26.4423 10.5824L27.2241 6.67086L27.3318 6.13176H26.7821H18.9644C15.5096 6.13176 12.1745 8.92142 11.4866 12.3614C11.1394 14.0973 11.5265 15.7024 12.4666 16.8782C13.4074 18.055 14.8752 18.7678 16.6191 18.7678H18.5736C18.9847 18.7678 19.296 18.9322 19.4877 19.1721C19.6803 19.413 19.7789 19.7638 19.695 20.1846C19.5209 21.0578 18.6477 21.7777 17.7918 21.7777H9.97415Z" fill="white" stroke="white" stroke-width="0.901518"/>
<ellipse cx="6.94862" cy="8.53504" rx="2.85633" ry="2.85828" fill="#D21010"/>
</svg>
